<svg version="1.1" id="Layer_1" xmlns="http://www.w3.org/2000/svg" xmlns:xlink="http://www.w3.org/1999/xlink" x="0px" y="0px"
	 width="100%" viewBox="0 0 96 96" enable-background="new 0 0 96 96" xml:space="preserve">
<path fill="#000000" opacity="1.000000" stroke="none" 
	d="
M59.000000,97.000000 
	C39.333336,97.000000 20.166674,97.000000 1.000008,97.000000 
	C1.000005,65.000008 1.000005,33.000019 1.000003,1.000021 
	C32.999985,1.000014 64.999969,1.000014 96.999969,1.000007 
	C96.999977,32.999981 96.999977,64.999962 96.999985,96.999969 
	C84.500000,97.000000 72.000000,97.000000 59.000000,97.000000 
M28.961073,34.252853 
	C27.026255,31.876837 25.341192,29.212610 23.060253,27.236004 
	C21.752106,26.102390 15.070600,31.004009 15.192357,32.869473 
	C15.232823,33.489460 15.970823,34.104866 16.473770,34.644180 
	C17.239981,35.465790 18.234594,36.112610 18.858730,37.021461 
	C20.869469,39.949448 22.762091,39.846428 25.105537,37.309303 
	C26.094542,36.238564 27.698187,35.735542 29.115368,35.713100 
	C27.011831,39.416817 25.118269,43.265770 22.704792,46.755108 
	C21.693098,48.217789 19.629211,49.695847 17.956656,49.802536 
	C14.545588,50.020126 13.189569,51.509819 13.105121,54.658546 
	C13.019149,57.864140 13.872519,60.202927 17.764433,60.099358 
	C18.429258,60.081669 19.115826,60.881004 20.125195,61.510464 
	C18.012617,62.171791 16.498476,62.645779 14.439713,63.253120 
	C14.004679,63.829109 13.569644,64.405098 13.119638,65.725845 
	C14.702468,66.754257 16.505049,68.860222 17.823318,68.591377 
	C20.753214,67.993858 21.370556,69.641144 22.801455,71.354561 
	C26.249830,75.483780 29.472885,80.348976 33.929485,82.986755 
	C47.865486,91.235176 67.091522,86.980446 75.093048,71.698380 
	C76.240601,69.506653 77.205070,67.729263 80.371826,68.608864 
	C81.556732,68.937973 83.220535,67.542953 84.665985,66.934036 
	C83.852600,65.709435 83.200066,64.323105 82.178894,63.307400 
	C81.228539,62.362137 79.885574,61.811592 78.407364,60.896568 
	C79.246880,60.486404 79.661758,60.101013 80.059555,60.117916 
	C83.630188,60.269619 85.152313,58.746876 85.032501,55.046669 
	C84.918655,51.530807 82.946274,51.091431 80.135193,50.921551 
	C78.817261,50.841896 76.961395,50.211639 76.368240,49.220886 
	C73.748726,44.845505 71.499817,40.248241 69.116714,35.731323 
	C69.779259,36.425953 70.441803,37.120586 71.104355,37.815216 
	C72.389793,34.180836 73.675240,30.546453 74.960678,26.912071 
	C75.952393,27.144360 76.944107,27.376646 77.935822,27.608932 
	C75.727936,25.858862 73.691711,23.769821 71.229111,22.522722 
	C70.220062,22.011723 67.534264,22.860590 66.914612,23.881752 
	C64.664352,27.590073 62.850101,27.976526 60.269726,24.501898 
	C58.097260,21.576550 56.137527,18.493927 53.991238,15.548241 
	C51.705273,12.410856 47.884968,11.974810 45.026680,14.585684 
	C43.949989,15.569172 43.237953,16.944809 42.320374,18.110746 
	C37.879433,23.753706 33.425117,29.386143 28.961073,34.252853 
z"/>
<path fill="#20394C" opacity="1.000000" stroke="none" 
	d="
M14.984336,63.119766 
	C16.498476,62.645779 18.012617,62.171791 20.125195,61.510464 
	C19.115826,60.881004 18.429258,60.081669 17.764433,60.099358 
	C13.872519,60.202927 13.019149,57.864140 13.105121,54.658546 
	C13.189569,51.509819 14.545588,50.020126 17.956656,49.802536 
	C19.629211,49.695847 21.693098,48.217789 22.704792,46.755108 
	C25.118269,43.265770 27.011831,39.416817 29.053751,35.352417 
	C28.992134,34.991730 28.975540,35.022308 28.975540,35.022308 
	C33.425117,29.386143 37.879433,23.753706 42.320374,18.110746 
	C43.237953,16.944809 43.949989,15.569172 45.026680,14.585684 
	C47.884968,11.974810 51.705273,12.410856 53.991238,15.548241 
	C56.137527,18.493927 58.097260,21.576550 60.269726,24.501898 
	C62.850101,27.976526 64.664352,27.590073 66.914612,23.881752 
	C67.534264,22.860590 70.220062,22.011723 71.229111,22.522722 
	C73.691711,23.769821 75.727936,25.858862 77.935822,27.608932 
	C76.944107,27.376646 75.952393,27.144360 74.960678,26.912071 
	C73.675240,30.546453 72.389793,34.180836 71.104355,37.815216 
	C70.441803,37.120586 69.779259,36.425953 69.116714,35.731323 
	C71.499817,40.248241 73.748726,44.845505 76.368240,49.220886 
	C76.961395,50.211639 78.817261,50.841896 80.135193,50.921551 
	C82.946274,51.091431 84.918655,51.530807 85.032501,55.046669 
	C85.152313,58.746876 83.630188,60.269619 80.059555,60.117916 
	C79.661758,60.101013 79.246880,60.486404 78.407364,60.896568 
	C79.885574,61.811592 81.228539,62.362137 82.178894,63.307400 
	C83.200066,64.323105 83.852600,65.709435 84.665985,66.934036 
	C83.220535,67.542953 81.556732,68.937973 80.371826,68.608864 
	C77.205070,67.729263 76.240601,69.506653 75.093048,71.698380 
	C67.091522,86.980446 47.865486,91.235176 33.929485,82.986755 
	C29.472885,80.348976 26.249830,75.483780 22.801455,71.354561 
	C21.370556,69.641144 20.753214,67.993858 17.823318,68.591377 
	C16.505049,68.860222 14.702468,66.754257 13.386583,65.257294 
	C14.097132,64.232422 14.540734,63.676094 14.984336,63.119766 
M32.134922,41.979004 
	C30.967167,43.918499 29.799412,45.857994 28.115187,48.324127 
	C27.341705,53.548527 26.568224,58.772923 25.370235,64.022324 
	C25.087383,64.244507 24.804531,64.466682 24.521677,64.688858 
	C24.959286,64.792809 25.396893,64.896767 26.121775,65.542946 
	C26.443291,65.792862 26.764809,66.042778 27.183414,66.726357 
	C27.464115,67.081947 27.744816,67.437531 28.051613,68.425201 
	C28.536064,69.282234 29.020515,70.139267 29.730274,71.564560 
	C30.505949,72.417465 31.281624,73.270370 32.257019,74.848000 
	C35.501320,76.890930 38.745625,78.933861 42.548729,81.480331 
	C51.628323,84.733620 62.007439,81.308891 67.690941,72.767876 
	C67.785843,71.860481 67.880745,70.953094 67.988541,69.342583 
	C68.002380,68.639481 68.016220,67.936371 68.773575,67.030273 
	C69.861443,66.030037 71.577988,65.215279 71.936562,63.999874 
	C74.536179,55.188446 68.274872,40.010036 59.987286,34.262299 
	C56.959118,29.798510 53.930954,25.334721 50.763474,20.303768 
	C49.581112,18.112997 48.487694,18.356159 47.188984,20.286730 
	C42.639771,27.049267 38.020805,33.764881 33.076942,40.778465 
	C32.880161,41.013264 32.748905,41.280277 32.134922,41.979004 
z"/>
<path fill="#233646" opacity="1.000000" stroke="none" 
	d="
M29.007290,34.983097 
	C27.698187,35.735542 26.094542,36.238564 25.105537,37.309303 
	C22.762091,39.846428 20.869469,39.949448 18.858730,37.021461 
	C18.234594,36.112610 17.239981,35.465790 16.473770,34.644180 
	C15.970823,34.104866 15.232823,33.489460 15.192357,32.869473 
	C15.070600,31.004009 21.752106,26.102390 23.060253,27.236004 
	C25.341192,29.212610 27.026255,31.876837 28.968307,34.637581 
	C28.975540,35.022308 28.992134,34.991730 29.007290,34.983097 
z"/>
<path fill="#203A4D" opacity="1.000000" stroke="none" 
	d="
M14.712025,63.186443 
	C14.540734,63.676094 14.097132,64.232422 13.394069,64.884918 
	C13.569644,64.405098 14.004679,63.829109 14.712025,63.186443 
z"/>
<path fill="#1A80BB" opacity="1.000000" stroke="none" 
	d="
M41.989925,80.976791 
	C38.745625,78.933861 35.501320,76.890930 32.387138,74.244370 
	C34.777302,73.411743 37.037346,73.182739 39.615181,73.075775 
	C40.877064,73.412888 42.345036,74.125999 42.685837,73.767532 
	C47.051685,69.175217 51.211529,71.274872 55.499237,73.819725 
	C56.085224,74.167519 57.111721,73.773132 57.913330,74.100151 
	C56.664127,75.625526 55.621819,77.328751 54.171871,77.814026 
	C50.202965,79.142387 46.062473,79.958092 41.989925,80.976791 
z"/>
<path fill="#203A4D" opacity="1.000000" stroke="none" 
	d="
M57.934261,73.722366 
	C57.111721,73.773132 56.085224,74.167519 55.499237,73.819725 
	C51.211529,71.274872 47.051685,69.175217 42.685837,73.767532 
	C42.345036,74.125999 40.877064,73.412888 39.549458,72.704079 
	C36.511181,67.305077 33.048302,68.830574 29.504967,70.996300 
	C29.020515,70.139267 28.536064,69.282234 28.402885,68.044807 
	C33.832958,65.136368 38.550064,65.027802 42.002094,70.380989 
	C43.763615,68.897667 44.884079,67.954163 46.429352,66.979126 
	C50.096661,67.591103 53.339165,68.234612 57.214546,69.003723 
	C59.581944,65.681625 63.539013,65.169968 67.997635,66.937759 
	C67.972130,67.036896 68.030060,67.233269 68.030060,67.233269 
	C68.016220,67.936371 68.002380,68.639481 67.611176,69.619293 
	C63.173302,68.044449 60.139599,69.208580 57.966881,73.204391 
	C57.921150,73.373077 57.934261,73.722366 57.934261,73.722366 
z"/>
<path fill="#46DAF3" opacity="1.000000" stroke="none" 
	d="
M33.428326,40.498318 
	C38.020805,33.764881 42.639771,27.049267 47.188984,20.286730 
	C48.487694,18.356159 49.581112,18.112997 50.623192,20.914650 
	C49.935429,26.262129 49.387947,30.998722 48.459198,35.814468 
	C43.675552,37.868641 39.273186,39.843666 34.511139,41.487564 
	C33.910416,40.937065 33.669373,40.717690 33.428326,40.498318 
z"/>
<path fill="#1ACEFA" opacity="1.000000" stroke="none" 
	d="
M48.840469,35.735317 
	C49.387947,30.998722 49.935429,26.262129 50.692848,21.198233 
	C53.930954,25.334721 56.959118,29.798510 59.820992,34.771828 
	C59.430584,35.863400 59.206470,36.445450 58.555382,37.065338 
	C55.032429,36.647221 51.936447,36.191269 48.840469,35.735317 
z"/>
<path fill="#146BA3" opacity="1.000000" stroke="none" 
	d="
M57.913330,74.100151 
	C57.934261,73.722366 57.921150,73.373077 58.422253,73.236038 
	C61.695896,73.176933 64.468437,73.254868 67.240982,73.332802 
	C62.007439,81.308891 51.628323,84.733620 42.269325,81.228561 
	C46.062473,79.958092 50.202965,79.142387 54.171871,77.814026 
	C55.621819,77.328751 56.664127,75.625526 57.913330,74.100151 
z"/>
<path fill="#1589C9" opacity="1.000000" stroke="none" 
	d="
M58.982361,37.027500 
	C59.206470,36.445450 59.430584,35.863400 59.918015,35.107979 
	C68.274872,40.010036 74.536179,55.188446 71.936562,63.999874 
	C71.577988,65.215279 69.861443,66.030037 68.401817,67.131775 
	C68.030060,67.233269 67.972130,67.036896 68.028687,66.677483 
	C68.131958,66.149689 68.178680,65.981308 68.389877,65.495377 
	C68.581947,61.198196 68.609535,57.218571 68.476311,52.861137 
	C65.204445,47.331390 62.093407,42.179447 58.982361,37.027500 
z"/>
<path fill="#2BCAF6" opacity="1.000000" stroke="none" 
	d="
M27.086323,66.292694 
	C26.764809,66.042778 26.443291,65.792862 26.018299,65.019012 
	C25.874796,64.329163 25.834768,64.163246 25.794741,63.997322 
	C26.568224,58.772923 27.341705,53.548527 28.753239,48.100426 
	C29.898840,47.921207 30.406393,47.965698 30.860701,48.383522 
	C30.096897,51.151085 29.386335,53.545311 28.581516,56.257137 
	C31.140583,56.571781 32.556427,56.745861 33.910957,57.240974 
	C33.624573,59.099224 33.399506,60.636436 33.029018,62.480347 
	C30.951174,63.955589 29.018747,65.124138 27.086323,66.292694 
z"/>
<path fill="#86C1D7" opacity="1.000000" stroke="none" 
	d="
M27.134869,66.509521 
	C29.018747,65.124138 30.951174,63.955589 33.356651,62.637222 
	C37.841068,63.585434 41.852432,64.683464 45.899536,66.088715 
	C45.958363,66.600838 45.981449,66.805740 46.004539,67.010651 
	C44.884079,67.954163 43.763615,68.897667 42.002094,70.380989 
	C38.550064,65.027802 33.832958,65.136368 28.389835,67.728767 
	C27.744816,67.437531 27.464115,67.081947 27.134869,66.509521 
z"/>
<path fill="#21B6E0" opacity="1.000000" stroke="none" 
	d="
M29.617620,71.280426 
	C33.048302,68.830574 36.511181,67.305077 39.231667,72.582039 
	C37.037346,73.182739 34.777302,73.411743 32.287281,73.882011 
	C31.281624,73.270370 30.505949,72.417465 29.617620,71.280426 
z"/>
<path fill="#1EB0DC" opacity="1.000000" stroke="none" 
	d="
M67.465958,73.050339 
	C64.468437,73.254868 61.695896,73.176933 58.467983,73.067352 
	C60.139599,69.208580 63.173302,68.044449 67.604729,69.970856 
	C67.880745,70.953094 67.785843,71.860481 67.465958,73.050339 
z"/>
<path fill="#3CBBDA" opacity="1.000000" stroke="none" 
	d="
M30.913944,48.010185 
	C30.406393,47.965698 29.898840,47.921207 29.011471,47.837105 
	C29.799412,45.857994 30.967167,43.918499 32.601868,42.022186 
	C33.351906,42.365372 33.634995,42.665375 33.804176,43.270241 
	C32.764828,45.053471 31.839388,46.531830 30.913944,48.010185 
z"/>
<path fill="#203A4D" opacity="1.000000" stroke="none" 
	d="
M25.582489,64.009827 
	C25.834768,64.163246 25.874796,64.329163 25.874662,64.747894 
	C25.396893,64.896767 24.959286,64.792809 24.521679,64.688858 
	C24.804531,64.466682 25.087383,64.244507 25.582489,64.009827 
z"/>
<path fill="#46DAF3" opacity="1.000000" stroke="none" 
	d="
M33.918083,42.965374 
	C33.634995,42.665375 33.351906,42.365372 32.875992,41.822433 
	C32.748905,41.280277 32.880161,41.013264 33.252632,40.638390 
	C33.669373,40.717690 33.910416,40.937065 34.411545,41.722500 
	C34.420448,42.514164 34.169266,42.739769 33.918083,42.965374 
z"/>
<path fill="#92CFE3" opacity="1.000000" stroke="none" 
	d="
M46.429348,66.979126 
	C45.981449,66.805740 45.958363,66.600838 46.027298,65.764221 
	C47.116333,64.589409 48.113342,64.046318 49.465897,63.592590 
	C53.232681,65.280556 56.215145,65.451942 59.769199,63.143600 
	C62.753593,61.205257 66.518852,61.399712 68.225403,65.812920 
	C68.178680,65.981308 68.131958,66.149689 68.054184,66.578339 
	C63.539013,65.169968 59.581944,65.681625 57.214546,69.003723 
	C53.339165,68.234612 50.096661,67.591103 46.429348,66.979126 
z"/>
<path fill="#284A60" opacity="1.000000" stroke="none" 
	d="
M33.804176,43.270241 
	C34.169266,42.739769 34.420448,42.514164 34.771225,42.053627 
	C39.273186,39.843666 43.675552,37.868641 48.459198,35.814468 
	C51.936447,36.191269 55.032429,36.647221 58.555382,37.065338 
	C62.093407,42.179447 65.204445,47.331390 68.405205,53.258999 
	C67.040817,54.918728 65.647072,56.419846 64.121094,56.569099 
	C59.849346,56.986923 55.284828,55.811172 52.076077,60.094650 
	C51.518250,60.839302 49.990974,60.857746 48.565571,61.098652 
	C43.856091,58.279377 39.636028,55.070148 33.972275,56.919945 
	C32.556427,56.745861 31.140583,56.571781 28.581516,56.257137 
	C29.386335,53.545311 30.096897,51.151085 30.860703,48.383522 
	C31.839388,46.531830 32.764828,45.053471 33.804176,43.270241 
M54.277374,47.606457 
	C54.812420,49.291061 55.347466,50.975666 56.002769,53.038910 
	C58.500324,53.038910 61.574970,53.038910 65.159042,53.038910 
	C64.148941,47.877686 62.078209,44.023705 57.070770,41.147003 
	C45.753948,36.056839 33.787941,42.071445 33.616100,53.532864 
	C36.705284,53.245384 41.441486,54.059410 42.470379,52.471409 
	C45.445843,47.879063 49.833736,48.013916 54.277374,47.606457 
M51.659035,50.226231 
	C50.553982,50.557850 49.116344,50.571743 48.423412,51.297070 
	C47.434349,52.332386 46.591393,53.860577 46.493969,55.235512 
	C46.449650,55.861050 48.590332,57.381279 49.296513,57.148808 
	C50.388725,56.789249 51.394794,55.398476 51.892616,54.215710 
	C52.407383,52.992672 52.272030,51.496006 51.659035,50.226231 
z"/>
<path fill="#10B0F3" opacity="1.000000" stroke="none" 
	d="
M48.911469,61.211605 
	C49.990974,60.857746 51.518250,60.839302 52.076077,60.094650 
	C55.284828,55.811172 59.849346,56.986923 64.121094,56.569099 
	C65.647072,56.419846 67.040817,54.918728 68.566025,53.636803 
	C68.609535,57.218571 68.581947,61.198196 68.389877,65.495377 
	C66.518852,61.399712 62.753593,61.205257 59.769199,63.143600 
	C56.215145,65.451942 53.232681,65.280556 49.439934,63.306778 
	C49.009434,62.358265 48.960453,61.784935 48.911469,61.211605 
z"/>
<path fill="#1DC2F6" opacity="1.000000" stroke="none" 
	d="
M48.565575,61.098652 
	C48.960453,61.784935 49.009434,62.358265 49.084385,63.217411 
	C48.113342,64.046318 47.116333,64.589409 45.991562,65.457001 
	C41.852432,64.683464 37.841068,63.585434 33.502068,62.330528 
	C33.399506,60.636436 33.624573,59.099224 33.910957,57.240974 
	C39.636028,55.070148 43.856091,58.279377 48.565575,61.098652 
z"/>
<path fill="#E7EAEB" opacity="1.000000" stroke="none" 
	d="
M54.006569,46.958458 
	C49.833736,48.013916 45.445843,47.879063 42.470379,52.471409 
	C41.441486,54.059410 36.705284,53.245384 33.616100,53.532864 
	C33.787941,42.071445 45.753948,36.056839 57.041573,41.632088 
	C56.010441,43.730938 55.008503,45.344700 54.006569,46.958458 
z"/>
<path fill="#E1E5E6" opacity="1.000000" stroke="none" 
	d="
M54.141968,47.282455 
	C55.008503,45.344700 56.010441,43.730938 57.321095,41.898605 
	C62.078209,44.023705 64.148941,47.877686 65.159042,53.038910 
	C61.574970,53.038910 58.500324,53.038910 56.002769,53.038910 
	C55.347466,50.975666 54.812420,49.291061 54.141968,47.282455 
z"/>
<path fill="#DDE1E4" opacity="1.000000" stroke="none" 
	d="
M52.040051,50.172630 
	C52.272030,51.496006 52.407383,52.992672 51.892616,54.215710 
	C51.394794,55.398476 50.388725,56.789249 49.296513,57.148808 
	C48.590332,57.381279 46.449650,55.861050 46.493969,55.235512 
	C46.591393,53.860577 47.434349,52.332386 48.423412,51.297070 
	C49.116344,50.571743 50.553982,50.557850 52.040051,50.172630 
z"/>
</svg>